<?xml version="1.0" standalone="no"?>
<!DOCTYPE svg PUBLIC "-//W3C//DTD SVG 1.1//EN" "http://www.w3.org/Graphics/SVG/1.1/DTD/svg11.dtd">
<svg width="100%" height="100%" viewBox="0 0 173 259" version="1.1" xmlns="http://www.w3.org/2000/svg" xmlns:xlink="http://www.w3.org/1999/xlink" xml:space="preserve" style="fill-rule:evenodd;clip-rule:evenodd;stroke-linejoin:round;stroke-miterlimit:1.41421;">
    <g transform="matrix(4.16667,0,0,4.16667,-1300.25,-233.977)">
        <path d="M332.726,113.487C323.889,113.487 316.726,106.324 316.726,97.487C316.726,88.65 323.889,81.487 332.726,81.487C341.563,81.487 348.726,88.65 348.726,97.487C348.726,106.324 341.563,113.487 332.726,113.487M332.726,76.82C326.274,76.82 320.516,79.779 316.726,84.411L316.726,56.154L312.059,56.154L312.059,97.487C312.059,108.901 321.312,118.154 332.726,118.154C344.14,118.154 353.393,108.901 353.393,97.487C353.393,86.073 344.14,76.82 332.726,76.82" style="fill:rgb(57,181,74);fill-rule:nonzero;"/>
    </g>
</svg>
