<?xml version="1.0" standalone="no"?>
<!DOCTYPE svg PUBLIC "-//W3C//DTD SVG 1.1//EN" "http://www.w3.org/Graphics/SVG/1.1/DTD/svg11.dtd">
<svg width="100%" height="100%" viewBox="0 0 924 259" version="1.1" xmlns="http://www.w3.org/2000/svg" xmlns:xlink="http://www.w3.org/1999/xlink" xml:space="preserve" style="fill-rule:evenodd;clip-rule:evenodd;stroke-linejoin:round;stroke-miterlimit:1.41421;">
    <g>
        <path d="M277.776,238.888C240.955,238.888 211.109,209.042 211.109,172.221C211.109,135.4 240.955,105.554 277.776,105.554C314.597,105.554 344.443,135.4 344.443,172.221C344.443,209.042 314.597,238.888 277.776,238.888M277.776,86.108C230.217,86.108 191.663,124.663 191.663,172.221C191.663,219.779 230.217,258.333 277.776,258.333C325.334,258.333 363.888,219.779 363.888,172.221C363.888,124.663 325.334,86.108 277.776,86.108" style="fill:#fff;fill-rule:nonzero;"/>
        <path d="M86.113,238.888C49.292,238.888 19.446,209.042 19.446,172.221C19.446,135.4 49.292,105.554 86.113,105.554C122.933,105.554 152.779,135.4 152.779,172.221C152.779,209.042 122.933,238.888 86.113,238.888M86.113,86.108C59.229,86.108 35.238,98.437 19.446,117.737L19.446,0L0,0L0,172.221C0,219.779 38.554,258.333 86.113,258.333C133.671,258.333 172.225,219.779 172.225,172.221C172.225,124.663 133.671,86.108 86.113,86.108" style="fill:#fff;fill-rule:nonzero;"/>
        <path d="M684.739,172.221L684.468,172.221L684.468,0.58L665.026,0.58L665.026,172.221L665.293,172.221C665.293,219.78 703.847,258.334 751.405,258.334L751.405,238.888C714.585,238.888 684.739,209.042 684.739,172.221" style="fill:#fff;fill-rule:nonzero;"/>
        <path d="M771.45,163.726C775.63,130.93 803.584,105.555 837.517,105.555C871.45,105.555 899.4,130.93 903.584,163.726L771.45,163.726ZM912.346,183.172L922.855,183.172C923.313,179.576 923.63,175.938 923.63,172.222C923.63,124.663 885.075,86.109 837.517,86.109C789.959,86.109 751.405,124.663 751.405,172.222C751.405,219.78 789.959,258.334 837.517,258.334C874.992,258.334 906.788,234.347 918.621,200.926L897.617,200.926C886.884,223.355 864.042,238.888 837.517,238.888C804.434,238.888 777.059,214.768 771.825,183.172L912.346,183.172Z" style="fill:#fff;fill-rule:nonzero;"/>
        <path d="M540.272,86.11L536.105,86.11L520.83,86.11L516.664,86.11L452.08,158.914L387.493,86.11L383.326,86.11L368.055,86.11L363.889,86.11L440.276,172.222L363.889,258.331L387.493,258.331L452.08,185.527L516.664,258.331L540.272,258.331L463.885,172.222L540.272,86.11Z" style="fill:#fff;fill-rule:nonzero;"/>
        <rect x="626.148" y="86.11" width="19.442" height="172.221" style="fill:#fff;fill-rule:nonzero;"/>
        <path d="M626.146,2.866L626.146,22.924C632.3,21.049 638.821,20.024 645.588,20.024L645.588,0.578C638.892,0.578 632.404,1.42 626.146,2.866" style="fill:#fff;fill-rule:nonzero;"/>
        <path d="M578.917,86.691L578.917,163.082L612.25,163.082L612.25,182.524L578.917,182.524L578.917,258.332L559.475,258.332L559.475,182.524L526.142,182.524L526.142,163.082L559.475,163.082L559.475,86.691L559.476,86.691C559.476,53.141 578.705,24.145 606.705,9.929L606.705,32.612C589.901,44.716 578.922,64.4 578.922,86.691L578.917,86.691Z" style="fill:#fff;"/>
    </g>
</svg>
