<?xml version="1.0" standalone="no"?>
<!DOCTYPE svg PUBLIC "-//W3C//DTD SVG 1.1//EN" "http://www.w3.org/Graphics/SVG/1.1/DTD/svg11.dtd">
<svg width="100%" height="100%" viewBox="0 0 173 173" version="1.1" xmlns="http://www.w3.org/2000/svg" xmlns:xlink="http://www.w3.org/1999/xlink" xml:space="preserve" style="fill-rule:evenodd;clip-rule:evenodd;stroke-linejoin:round;stroke-miterlimit:1.41421;">
    <g transform="matrix(4.16667,0,0,4.16667,-2051.65,-320.086)">
        <path d="M497.207,95.449C498.21,87.578 504.919,81.488 513.063,81.488C521.207,81.488 527.915,87.578 528.919,95.449L497.207,95.449ZM531.022,100.116L533.544,100.116C533.654,99.253 533.73,98.38 533.73,97.488C533.73,86.074 524.477,76.821 513.063,76.821C501.649,76.821 492.396,86.074 492.396,97.488C492.396,108.902 501.649,118.155 513.063,118.155C522.057,118.155 529.688,112.398 532.528,104.377L527.487,104.377C524.911,109.76 519.429,113.488 513.063,113.488C505.123,113.488 498.553,107.699 497.297,100.116L531.022,100.116Z" style="fill:rgb(57,181,74);fill-rule:nonzero;"/>
    </g>
</svg>
