<?xml version="1.0" standalone="no"?>
<!DOCTYPE svg PUBLIC "-//W3C//DTD SVG 1.1//EN" "http://www.w3.org/Graphics/SVG/1.1/DTD/svg11.dtd">
<svg width="100%" height="100%" viewBox="0 0 173 173" version="1.1" xmlns="http://www.w3.org/2000/svg" xmlns:xlink="http://www.w3.org/1999/xlink" xml:space="preserve" style="fill-rule:evenodd;clip-rule:evenodd;stroke-linejoin:round;stroke-miterlimit:1.41421;">
    <g transform="matrix(4.16667,0,0,4.16667,-1491.91,-320.085)">
        <path d="M378.725,113.487C369.888,113.487 362.725,106.324 362.725,97.487C362.725,88.65 369.888,81.487 378.725,81.487C387.562,81.487 394.725,88.65 394.725,97.487C394.725,106.324 387.562,113.487 378.725,113.487M378.725,76.82C367.311,76.82 358.058,86.073 358.058,97.487C358.058,108.901 367.311,118.154 378.725,118.154C390.139,118.154 399.392,108.901 399.392,97.487C399.392,86.073 390.139,76.82 378.725,76.82" style="fill:rgb(57,181,74);fill-rule:nonzero;"/>
    </g>
</svg>
